<?xml version="1.0" encoding="UTF-8" standalone="no"?>
<!-- Created with Inkscape (http://www.inkscape.org/) -->

<svg
   width="279.30719"
   height="285.67117"
   viewBox="0 0 73.900026 75.583831"
   version="1.1"
   id="svg5"
   inkscape:version="1.2.2 (732a01da63, 2022-12-09)"
   sodipodi:docname="drawing.svg"
   xmlns:inkscape="http://www.inkscape.org/namespaces/inkscape"
   xmlns:sodipodi="http://sodipodi.sourceforge.net/DTD/sodipodi-0.dtd"
   xmlns="http://www.w3.org/2000/svg"
   xmlns:svg="http://www.w3.org/2000/svg">
  <sodipodi:namedview
     id="namedview7"
     pagecolor="#ffffff"
     bordercolor="#000000"
     borderopacity="0.25"
     inkscape:showpageshadow="2"
     inkscape:pageopacity="0.0"
     inkscape:pagecheckerboard="0"
     inkscape:deskcolor="#d1d1d1"
     inkscape:document-units="px"
     showgrid="false"
     inkscape:zoom="1.4142136"
     inkscape:cx="378.30213"
     inkscape:cy="276.47875"
     inkscape:window-width="1600"
     inkscape:window-height="837"
     inkscape:window-x="-8"
     inkscape:window-y="-8"
     inkscape:window-maximized="1"
     inkscape:current-layer="layer1"
     inkscape:lockguides="false" />
  <defs
     id="defs2" />
  <g
     inkscape:label="Layer 1"
     inkscape:groupmode="layer"
     id="layer1"
     transform="translate(-46.023812,-44.901279)">
    <rect
       style="opacity:0;fill:#55ff99;fill-opacity:1;stroke:none;stroke-width:0"
       id="rect6561"
       width="73.900024"
       height="75.583824"
       x="46.023811"
       y="44.901279"
       ry="0.1546423"
       inkscape:export-filename="LIFE EXPECTANCY.svg"
       inkscape:export-xdpi="37.120419"
       inkscape:export-ydpi="37.120419" />
    <g
       id="g2145"
       style="fill:#000000"
       transform="translate(2.5192265,2.067057)">
      <path
         id="path2139"
         style="font-style:normal;font-variant:normal;font-weight:normal;font-stretch:normal;font-size:52.9167px;font-family:'Javanese Text';-inkscape-font-specification:'Javanese Text, Normal';font-variant-ligatures:normal;font-variant-caps:normal;font-variant-numeric:normal;font-variant-east-asian:normal;fill:#000000;fill-opacity:1;stroke:none;stroke-width:0"
         d="m 60.359622,53.103218 v 2.067057 h 5.167643 v 33.408813 h -5.167643 v 2.067058 h 23.388236 c -0.230544,-0.695289 -0.439437,-1.398284 -0.628902,-2.105815 -0.06091,-0.242396 -0.123299,-0.484699 -0.1757,-0.729154 -0.03561,0.01408 -0.06829,0.03081 -0.104386,0.04444 -0.757921,0.275608 -1.645035,0.465088 -2.661337,0.568441 -1.016302,0.103353 -2.19625,0.155029 -3.539835,0.155029 H 70.565717 V 55.170275 h 5.167643 v -2.067057 z m 28.441674,37.236486 c -0.0057,0.0039 -0.01174,0.0076 -0.01757,0.01137 8.12e-4,0.01408 0.0026,0.02098 0.01499,0.03979 -0.02656,-0.0018 -0.05324,-0.0022 -0.0801,-0.0026 -0.02539,0.01321 -0.05097,0.0257 -0.07752,0.03669 -8.89e-4,0.0298 -0.0018,0.0596 -0.0026,0.0894 0.02202,-0.007 0.04483,-0.009 0.0677,-0.01137 0.01053,-0.0011 0.02034,-0.002 0.02997,-0.0021 0.04365,-1.6e-4 0.07795,0.01018 0.102836,0.02635 -0.01213,-0.06023 -0.0231,-0.115925 -0.03772,-0.187586 z m -0.09508,0.182418 c -4.91e-4,5.2e-5 -0.0013,4.22e-4 -0.0016,5.17e-4 8.64e-4,6.18e-4 0.0039,0.0019 0.01034,0.0026 0.0034,3.28e-4 0.0069,3.58e-4 0.01033,5.17e-4 -0.0065,-0.0023 -0.01348,-0.0036 -0.01757,-0.0036 -6.62e-4,-2e-6 -0.0011,-5.1e-5 -0.0016,0 z m -0.01964,0.06873 v 5.17e-4 c 0.0027,9e-4 0.0055,0.0013 0.0083,0.0021 0.0022,4.13e-4 0.0045,6.68e-4 0.0067,0.001 -0.0054,-0.0022 -0.01209,-0.0034 -0.01499,-0.0036 z" />
      <path
         id="text2143"
         style="font-style:normal;font-variant:normal;font-weight:normal;font-stretch:normal;font-size:52.9167px;font-family:'Javanese Text';-inkscape-font-specification:'Javanese Text, Normal';font-variant-ligatures:normal;font-variant-caps:normal;font-variant-numeric:normal;font-variant-east-asian:normal;fill:#000000;fill-opacity:1;stroke:none;stroke-width:0"
         d="m 73.760871,71.326912 v 2.067057 h 5.167643 v 33.408811 h -5.167643 v 2.06706 h 29.688109 l 0.51677,-12.815756 h -1.80868 c -0.24116,1.550293 -0.49954,2.893881 -0.77515,4.030766 -0.2756,1.13688 -0.6115,2.1015 -1.00769,2.89388 -0.396183,0.79237 -0.869884,1.43832 -1.421099,1.93786 -0.533989,0.49954 -1.179945,0.88711 -1.937866,1.16272 -0.757921,0.27561 -1.645033,0.46509 -2.661336,0.56844 -1.016303,0.10336 -2.196249,0.15503 -3.539836,0.15503 H 83.966966 V 90.47303 h 3.384806 c 0.488238,0 0.93001,0.01232 1.346171,0.03101 0.0028,-2.96e-4 0.0055,-7.39e-4 0.0083,-0.001 0.01053,-0.0011 0.02034,-0.002 0.02997,-0.0021 0.02243,-8.2e-5 0.04241,0.0024 0.05994,0.0072 0.600304,0.02945 1.132517,0.07632 1.578715,0.145727 0.792371,0.120578 1.421102,0.413412 1.886189,0.878499 0.465088,0.465088 0.800985,1.154108 1.007691,2.067058 0.206705,0.895724 0.353122,2.127347 0.439249,3.694865 h 1.834514 V 81.998095 h -1.834514 c -0.103352,1.550292 -0.275607,2.756076 -0.516764,3.61735 -0.241156,0.844048 -0.602892,1.472778 -1.085205,1.88619 -0.465088,0.396186 -1.085205,0.637342 -1.860351,0.72347 -0.775147,0.08613 -1.739774,0.129191 -2.893881,0.129191 h -3.38483 V 73.393969 h 8.190715 c 1.67087,0 3.048909,0.111966 4.134114,0.335897 1.10243,0.206705 1.989543,0.620117 2.661336,1.240234 0.689019,0.602892 1.223009,1.446941 1.601969,2.532145 0.37896,1.067979 0.69763,2.463244 0.95601,4.185791 h 1.80868 l -0.51676,-10.361124 z" />
    </g>
    <g
       id="g2137">
      <path
         id="text2014"
         style="font-style:normal;font-variant:normal;font-weight:normal;font-stretch:normal;font-size:52.9167px;font-family:'Javanese Text';-inkscape-font-specification:'Javanese Text, Normal';font-variant-ligatures:normal;font-variant-caps:normal;font-variant-numeric:normal;font-variant-east-asian:normal;fill:#005522;fill-opacity:1;stroke:none;stroke-width:0"
         d="m 60.359622,53.103218 v 2.067057 h 5.167644 v 33.408813 h -5.167644 v 2.067057 h 23.388237 c -0.230544,-0.695289 -0.439438,-1.398282 -0.628903,-2.105814 -0.06091,-0.242396 -0.123299,-0.484699 -0.1757,-0.729155 -0.03561,0.01408 -0.06829,0.03081 -0.104386,0.04444 -0.757921,0.275608 -1.645033,0.465088 -2.661336,0.568441 -1.016303,0.103353 -2.196249,0.155029 -3.539836,0.155029 h -6.07198 V 55.170275 h 5.167643 v -2.067057 z m 28.441675,37.236486 c -0.0057,0.0039 -0.01174,0.0076 -0.01757,0.01137 8.12e-4,0.01408 0.0026,0.02098 0.01499,0.03979 -0.02656,-0.0018 -0.05324,-0.0022 -0.0801,-0.0026 -0.02539,0.01321 -0.05096,0.0257 -0.07751,0.03669 -0.0022,0.07373 -0.0041,0.147454 -0.0062,0.221175 h 0.228409 c -0.01864,-0.09093 -0.03811,-0.189347 -0.06201,-0.306441 z" />
      <path
         id="text2022"
         style="font-style:normal;font-variant:normal;font-weight:normal;font-stretch:normal;font-size:52.9167px;font-family:'Javanese Text';-inkscape-font-specification:'Javanese Text, Normal';font-variant-ligatures:normal;font-variant-caps:normal;font-variant-numeric:normal;font-variant-east-asian:normal;fill:#005522;fill-opacity:1;stroke:none;stroke-width:0"
         d="m 73.760871,71.326911 v 2.067058 h 5.167644 v 33.408811 h -5.167644 v 2.06706 h 29.688109 l 0.51677,-12.815756 h -1.80868 c -0.24116,1.550292 -0.49954,2.893881 -0.77515,4.030766 -0.2756,1.13688 -0.6115,2.1015 -1.00769,2.89388 -0.396182,0.79237 -0.869883,1.43832 -1.421098,1.93786 -0.53399,0.49954 -1.179946,0.88711 -1.937866,1.16272 -0.757921,0.27561 -1.645034,0.46509 -2.661337,0.56844 -1.016302,0.10336 -2.196249,0.15503 -3.539835,0.15503 H 83.966967 V 90.473029 h 3.384806 c 1.240234,0 2.247925,0.06029 3.023071,0.180868 0.792372,0.120578 1.421102,0.413411 1.88619,0.878499 0.465088,0.465088 0.800985,1.154107 1.00769,2.067057 0.206706,0.895725 0.353123,2.127347 0.43925,3.694865 h 1.834513 V 81.998095 h -1.834513 c -0.103353,1.550292 -0.275608,2.756076 -0.516764,3.61735 -0.241157,0.844048 -0.602892,1.472778 -1.085205,1.886189 -0.465088,0.396186 -1.085206,0.637343 -1.860352,0.723471 -0.775146,0.08613 -1.739774,0.129191 -2.89388,0.129191 H 83.966967 V 73.393969 h 8.190714 c 1.670871,0 3.04891,0.111965 4.134115,0.335896 1.10243,0.206706 1.989542,0.620118 2.661336,1.240235 0.689019,0.602891 1.223008,1.44694 1.601968,2.532145 0.37896,1.067979 0.69763,2.463244 0.95602,4.185791 h 1.80867 l -0.51676,-10.361125 z" />
    </g>
    <path
       style="fill:#002b11;fill-opacity:1;stroke:none;stroke-width:0"
       d="m 62.878847,57.237333 -2.519224,-2.067057 2.519225,2.067056 2.649969,0.03307 -0.0016,-2.10013 -5.167643,1e-6"
       id="path2147"
       sodipodi:nodetypes="cccccc" />
    <path
       style="fill:#002b11;fill-opacity:1;stroke:none;stroke-width:0"
       d="m 75.733361,55.170276 h 2.519228 v 2.067057 h -5.232146 l -2.470851,-2.07512 z"
       id="path2367"
       sodipodi:nodetypes="cccccc" />
    <path
       style="fill:#002b11;fill-opacity:1;stroke:none;stroke-width:0"
       d="m 73.084946,57.237333 -2.519228,-2.067057 v 33.40881 h 3.035991 z"
       id="path2369" />
    <path
       style="fill:#002b11;fill-opacity:1;stroke:none;stroke-width:0"
       d="m 75.733361,53.103218 c 2.519228,2.067058 2.519228,2.067058 2.519228,2.067058 h -2.519228 z"
       id="path2371" />
    <path
       style="fill:#002b11;fill-opacity:1;stroke:none;stroke-width:0"
       d="m 60.359623,90.646146 h 2.519224 l 16.046567,-3e-6 0.0051,2.06706 H 62.878847 l -2.519224,-2.067057"
       id="path2377"
       sodipodi:nodetypes="cccccc" />
    <path
       style="fill:#002b11;fill-opacity:1;stroke:none;stroke-width:0"
       d="m 73.760869,73.393995 h 5.162625 l 0.01893,2.073066 h -2.646148 z"
       id="path2396" />
    <path
       style="fill:#002b11;fill-opacity:1;stroke:none;stroke-width:0"
       d="m 73.760869,108.86989 2.519225,2.06706 h 29.584466 l -2.44534,-2.06706 z"
       id="path2398" />
    <path
       style="fill:#002b11;fill-opacity:1;stroke:none;stroke-width:0"
       d="m 106.48499,98.189943 -0.62043,12.747007 -2.44534,-2.06706 0.26334,-6.16547 z"
       id="path2402" />
    <path
       style="fill:#002b11;fill-opacity:1;stroke:none;stroke-width:0"
       d="m 84.044572,73.393995 2.407722,2.073066 0.01881,12.866267 -2.539396,0.01881 V 73.393995"
       id="path2404" />
    <path
       style="fill:#002b11;fill-opacity:1;stroke:none;stroke-width:0"
       d="m 84.044572,73.393995 h 8.48346 l 1.899846,2.035445 -7.975584,0.03762 z"
       id="path2427" />
    <path
       style="fill:#002b11;fill-opacity:1;stroke:none;stroke-width:0"
       d="m 86.471105,106.8427 -2.539396,0.0376 0.0214,-16.39381 2.58764,2.021447 z"
       id="path2429"
       sodipodi:nodetypes="ccccc" />
    <path
       style="fill:#002b11;fill-opacity:1;stroke:none;stroke-width:0"
       d="m 102.88158,73.393995 h 2.3866 l 0.54827,10.298078 -1.85069,0.03225 -0.66491,-3.547642 z"
       id="path2435" />
    <path
       style="fill:#002b11;fill-opacity:1;stroke:none;stroke-width:0"
       d="m 96.237823,84.07909 1.870573,0.03225 -0.0645,15.254856 -1.77382,-0.0645 -0.75743,-4.291712 -0.06612,-6.931733 z"
       id="path2437"
       sodipodi:nodetypes="ccccccc" />
    <path
       style="fill:#002b11;fill-opacity:1;stroke:none;stroke-width:0"
       d="m 106.55341,98.075918 -2.87085,4.719722 1.05348,-4.718576 z"
       id="path2439"
       sodipodi:nodetypes="cccc" />
    <path
       style="fill:#002b11;fill-opacity:1;stroke:none;stroke-width:0"
       d="m 83.884693,90.395271 3.467081,0.07775 5.701958,2.247894 -6.512983,-0.212987 -2.596587,-1.943687"
       id="path2458"
       sodipodi:nodetypes="ccccc" />
    <path
       style="fill:#002b11;fill-opacity:1;stroke:none;stroke-width:0"
       d="m 87.237568,90.47302 1.117438,0.01347 1.038164,0.05628 0.752593,0.07815 c 2.12583,0.09944 2.517025,1.117956 2.874391,2.148376 l -5.782586,-2.296264"
       id="path2460"
       sodipodi:nodetypes="cccccc" />
    <path
       style="fill:#005522;fill-opacity:1;stroke:none;stroke-width:0"
       d="m 75.733361,53.103218 c -0.132562,0.662507 -0.267029,1.227724 0,2.067058 l 2.519228,2.067057 -3e-6,-2.067057 z"
       id="path2462"
       sodipodi:nodetypes="ccccc" />
    <path
       style="fill:#002b11;fill-opacity:1;stroke:none;stroke-width:0"
       d="M 99.84085,76.072232 C 98.014165,75.790886 96.170458,75.458471 94.427878,75.42944 l -2.131356,-2.035445 c 0.859016,-0.04409 1.979151,0.06103 3.143104,0.191193 3.074055,0.199528 4.079589,1.576724 4.401224,2.487044 z"
       id="path6393"
       sodipodi:nodetypes="ccccc" />
  </g>
</svg>
